<svg width="982" height="853" viewBox="0 0 982 853" fill="none" xmlns="http://www.w3.org/2000/svg">
<rect x="423" y="488" width="30" height="364" fill="#AEAEAE"/>
<circle cx="438" cy="487" r="52" fill="#AEAEAE"/>
<rect x="66.1821" y="520.472" width="59" height="32" rx="5" transform="rotate(-23.9554 66.1821 520.472)" fill="#443C34"/>
<rect x="74.1014" y="523.519" width="22" height="4" rx="2" transform="rotate(-23.9554 74.1014 523.519)" fill="#6A6560"/>
<rect x="77.3495" y="530.83" width="22" height="4" rx="2" transform="rotate(-23.9554 77.3495 530.83)" fill="#6A6560"/>
<rect x="80.5978" y="538.141" width="22" height="4" rx="2" transform="rotate(-23.9554 80.5978 538.141)" fill="#6A6560"/>
<rect x="82.5347" y="476.002" width="100" height="100" rx="7" transform="rotate(-23.9554 82.5347 476.002)" fill="#A26A2F"/>
<line x1="94.8752" y1="480.663" x2="112.663" y2="472.125" stroke="#BB7C3A" stroke-width="8" stroke-linecap="round"/>
<rect x="549.229" y="147.189" width="322" height="322" rx="161" transform="rotate(-23.9554 549.229 147.189)" fill="#3D5C8D"/>
<path d="M111.513 447.634C108.061 439.864 110.879 430.739 118.112 426.27L719.093 54.8991C727.856 49.4842 739.383 53.0447 743.566 62.4584L873.109 354.03C877.292 363.443 872.208 374.384 862.316 377.257L183.891 574.322C175.726 576.693 167.065 572.668 163.613 564.899L111.513 447.634Z" fill="#C1823E"/>
<line x1="179.195" y1="560.397" x2="770.397" y2="387.805" stroke="#AE7435" stroke-width="30" stroke-linecap="round"/>
<rect x="632.393" y="90.5435" width="113" height="358" rx="14" transform="rotate(-23.9554 632.393 90.5435)" fill="#9F6222"/>
<path d="M564.595 852.146H529L423 686.146L448.285 670L564.595 852.146Z" fill="#AEAEAE"/>
<path d="M311 852.291H346.595L452.595 686.291L427.31 670.146L311 852.291Z" fill="#AEAEAE"/>
<line x1="160.415" y1="430.672" x2="614.672" y2="148.585" stroke="#D39A5E" stroke-width="15" stroke-linecap="round"/>
<line x1="429" y1="668" x2="429" y2="541" stroke="#D5D5D5" stroke-width="4" stroke-linecap="round"/>
<line x1="429" y1="845" x2="429" y2="739" stroke="#D5D5D5" stroke-width="4" stroke-linecap="round"/>
<line x1="324.403" y1="843.985" x2="425.235" y2="687.597" stroke="#D5D5D5" stroke-width="4" stroke-linecap="round"/>
<line x1="534.24" y1="848.384" x2="456.384" y2="725.76" stroke="#D5D5D5" stroke-width="4" stroke-linecap="round"/>
<line x1="648.494" y1="97.36" x2="783.36" y2="401.506" stroke="#925B22" stroke-width="25" stroke-linecap="round"/>
<path d="M765.04 81.4141C765.04 81.4141 805.717 72.7074 858.847 117.755C911.976 162.802 906.99 213.214 906.99 213.214" stroke="#597EB9" stroke-width="10" stroke-linecap="round"/>
<line x1="676.748" y1="91.0778" x2="725.078" y2="69.2516" stroke="#BB7C3A" stroke-width="15" stroke-linecap="round"/>
<line x1="831.245" y1="226.831" x2="872.831" y2="321.755" stroke="#2F4F82" stroke-width="11" stroke-linecap="round"/>
</svg>
