<svg width="1069" height="158" viewBox="0 0 1069 158" fill="none" xmlns="http://www.w3.org/2000/svg">
<mask id="path-1-inside-1_8_211" fill="white">
<path d="M89 150.013C89 157.057 80.4836 160.584 75.5028 155.603L50.0907 130.191C47.0031 127.104 41.9969 127.104 38.9093 130.191L13.4972 155.603C8.51641 160.584 0 157.057 0 150.013V7.90648C0 3.53985 3.53985 0 7.90648 0H81.0935C85.4601 0 89 3.53985 89 7.90648V150.013Z"/>
</mask>
<path d="M89 150.013C89 157.057 80.4836 160.584 75.5028 155.603L50.0907 130.191C47.0031 127.104 41.9969 127.104 38.9093 130.191L13.4972 155.603C8.51641 160.584 0 157.057 0 150.013V7.90648C0 3.53985 3.53985 0 7.90648 0H81.0935C85.4601 0 89 3.53985 89 7.90648V150.013Z" fill="url(#paint0_linear_8_211)"/>
<path d="M13.4972 155.603L9.77006 151.876L13.4972 155.603ZM50.0907 130.191L46.3636 133.918L50.0907 130.191ZM38.9093 130.191L42.6364 133.918L38.9093 130.191ZM75.5028 155.603L79.2299 151.876L53.8179 126.464L50.0907 130.191L46.3636 133.918L71.7756 159.331L75.5028 155.603ZM38.9093 130.191L35.1821 126.464L9.77006 151.876L13.4972 155.603L17.2244 159.331L42.6364 133.918L38.9093 130.191ZM0 150.013H5.27099V7.90648H0H-5.27099V150.013H0ZM7.90648 0V5.27099H81.0935V0V-5.27099H7.90648V0ZM89 7.90648H83.729V150.013H89H94.271V7.90648H89ZM81.0935 0V5.27099C82.5491 5.27099 83.729 6.45094 83.729 7.90648H89H94.271C94.271 0.628769 88.3712 -5.27099 81.0935 -5.27099V0ZM0 7.90648H5.27099C5.27099 6.45094 6.45094 5.27099 7.90648 5.27099V0V-5.27099C0.628766 -5.27099 -5.27099 0.628767 -5.27099 7.90648H0ZM13.4972 155.603L9.77006 151.876C8.10979 153.536 5.27099 152.361 5.27099 150.013H0H-5.27099C-5.27099 161.753 8.92302 167.632 17.2244 159.331L13.4972 155.603ZM50.0907 130.191L53.8179 126.464C48.6718 121.318 40.3282 121.318 35.1821 126.464L38.9093 130.191L42.6364 133.918C43.6656 132.889 45.3344 132.889 46.3636 133.918L50.0907 130.191ZM75.5028 155.603L71.7756 159.331C80.077 167.632 94.271 161.753 94.271 150.013H89H83.729C83.729 152.361 80.8902 153.536 79.2299 151.876L75.5028 155.603Z" fill="#2A2A2A" fill-opacity="0.23" mask="url(#path-1-inside-1_8_211)"/>
<path d="M576.639 107.343C576.639 114.251 578.955 121.004 583.295 126.748C587.635 132.492 593.803 136.969 601.02 139.612C608.237 142.256 616.179 142.948 623.84 141.6C631.502 140.252 638.539 136.926 644.063 132.041C649.586 127.156 653.348 120.932 654.872 114.157C656.396 107.382 655.614 100.359 652.624 93.9763C649.635 87.594 644.573 82.139 638.078 78.301C631.583 74.4631 623.946 72.4146 616.135 72.4146L616.135 84.9189C621.15 84.9189 626.052 86.234 630.222 88.698C634.392 91.1619 637.642 94.6641 639.561 98.7615C641.48 102.859 641.982 107.368 641.004 111.717C640.026 116.067 637.611 120.063 634.065 123.199C630.518 126.335 626 128.471 621.082 129.336C616.163 130.201 611.065 129.757 606.431 128.06C601.798 126.363 597.838 123.488 595.052 119.801C592.266 116.113 590.778 111.778 590.778 107.343H576.639Z" fill="#7B60D6"/>
<path d="M655.635 49.9666C655.635 43.0585 653.318 36.3054 648.978 30.5615C644.638 24.8176 638.47 20.3408 631.253 17.6971C624.036 15.0535 616.095 14.3618 608.433 15.7095C600.772 17.0572 593.734 20.3838 588.211 25.2686C582.687 30.1534 578.925 36.377 577.401 43.1525C575.877 49.9279 576.66 56.9508 579.649 63.3331C582.638 69.7154 587.701 75.1704 594.196 79.0084C600.691 82.8463 608.327 84.8948 616.139 84.8948L616.139 72.3905C611.123 72.3905 606.221 71.0754 602.051 68.6114C597.881 66.1474 594.631 62.6453 592.712 58.5479C590.793 54.4504 590.291 49.9417 591.269 45.5919C592.248 41.2421 594.663 37.2465 598.209 34.1105C601.755 30.9745 606.273 28.8388 611.192 27.9736C616.11 27.1083 621.209 27.5524 625.842 29.2496C630.475 30.9468 634.435 33.821 637.222 37.5085C640.008 41.1961 641.495 45.5316 641.495 49.9666L655.635 49.9666Z" fill="#7B60D6"/>
<rect x="889.507" y="14" width="13.8249" height="86.5439" fill="#7B60D6"/>
<rect x="896.45" y="62.7374" width="72.8944" height="72.8944" rx="36.4472" stroke="#7B60D6" stroke-width="13.8856"/>
<rect x="537.118" y="16.2625" width="13.8249" height="86.5439" fill="#7B60D6"/>
<rect x="471.108" y="62.4342" width="72.8944" height="72.8944" rx="36.4472" stroke="#7B60D6" stroke-width="13.8856"/>
<path d="M140 19.4598H154.959L192.185 142.272H177.34L140 19.4598Z" fill="#7B60D6"/>
<path d="M177.43 142.272H192.389L229.615 19.4599H214.77L177.43 142.272Z" fill="#7B60D6"/>
<path d="M215.07 19.4598H230.029L267.255 142.272H252.41L215.07 19.4598Z" fill="#7B60D6"/>
<path d="M252.499 142.272H267.458L304.684 19.4599H289.839L252.499 142.272Z" fill="#7B60D6"/>
<rect x="311.408" y="61.916" width="73.3329" height="73.3329" rx="36.6664" stroke="#7B60D6" stroke-width="13.4471"/>
<mask id="path-14-inside-2_8_211" fill="white">
<path d="M437.732 55.1925C433.734 55.1925 429.775 55.98 426.08 57.5102C422.386 59.0404 419.03 61.2832 416.202 64.1106C413.375 66.938 411.132 70.2945 409.602 73.9887C408.072 77.6829 407.284 81.6422 407.284 85.6407L420.796 85.6407C420.796 83.4166 421.234 81.2142 422.085 79.1593C422.936 77.1045 424.184 75.2374 425.756 73.6647C427.329 72.092 429.196 70.8444 431.251 69.9933C433.306 69.1421 435.508 68.704 437.732 68.704L437.732 55.1925Z"/>
</mask>
<path d="M437.732 55.1925C433.734 55.1925 429.775 55.98 426.08 57.5102C422.386 59.0404 419.03 61.2832 416.202 64.1106C413.375 66.938 411.132 70.2945 409.602 73.9887C408.072 77.6829 407.284 81.6422 407.284 85.6407L420.796 85.6407C420.796 83.4166 421.234 81.2142 422.085 79.1593C422.936 77.1045 424.184 75.2374 425.756 73.6647C427.329 72.092 429.196 70.8444 431.251 69.9933C433.306 69.1421 435.508 68.704 437.732 68.704L437.732 55.1925Z" stroke="#7B60D6" stroke-width="26.8941" mask="url(#path-14-inside-2_8_211)"/>
<rect x="407.284" y="85.6402" width="13.4471" height="56.9329" fill="#7B60D6"/>
<rect x="437.734" y="55.1924" width="14.3407" height="13.4471" fill="#7B60D6"/>
<mask id="path-17-inside-3_8_211" fill="white">
<path d="M812.013 54.8909C808.015 54.8909 804.055 55.6785 800.361 57.2087C796.667 58.7388 793.31 60.9816 790.483 63.809C787.656 66.6364 785.413 69.993 783.883 73.6872C782.353 77.3813 781.565 81.3407 781.565 85.3392L795.076 85.3392C795.076 83.115 795.515 80.9127 796.366 78.8578C797.217 76.8029 798.464 74.9359 800.037 73.3631C801.61 71.7904 803.477 70.5429 805.532 69.6917C807.587 68.8406 809.789 68.4025 812.013 68.4025L812.013 54.8909Z"/>
</mask>
<path d="M812.013 54.8909C808.015 54.8909 804.055 55.6785 800.361 57.2087C796.667 58.7388 793.31 60.9816 790.483 63.809C787.656 66.6364 785.413 69.993 783.883 73.6872C782.353 77.3813 781.565 81.3407 781.565 85.3392L795.076 85.3392C795.076 83.115 795.515 80.9127 796.366 78.8578C797.217 76.8029 798.464 74.9359 800.037 73.3631C801.61 71.7904 803.477 70.5429 805.532 69.6917C807.587 68.8406 809.789 68.4025 812.013 68.4025L812.013 54.8909Z" stroke="#7B60D6" stroke-width="26.8941" mask="url(#path-17-inside-3_8_211)"/>
<rect x="781.565" y="85.3388" width="13.4471" height="56.9329" fill="#7B60D6"/>
<rect x="812.015" y="54.891" width="14.3407" height="13.4471" fill="#7B60D6"/>
<path d="M848.261 142.271V54.5726H862.293V142.271H848.261ZM855.452 34.2266C853.114 34.2266 851.067 33.3496 849.313 31.5957C847.559 29.8417 846.682 27.7954 846.682 25.4568C846.682 23.0012 847.559 20.9549 849.313 19.3179C851.067 17.5639 853.114 16.687 855.452 16.687C857.908 16.687 859.954 17.5639 861.591 19.3179C863.345 20.9549 864.222 23.0012 864.222 25.4568C864.222 27.7954 863.345 29.8417 861.591 31.5957C859.954 33.3496 857.908 34.2266 855.452 34.2266Z" fill="#7B60D6"/>
<path d="M1032.41 142.966C1024.53 142.966 1017.56 141.185 1011.52 137.623C1005.47 133.953 1000.72 128.933 997.27 122.564C993.923 116.196 992.25 108.855 992.25 100.543C992.25 92.2314 993.923 84.891 997.27 78.5222C1000.72 72.1533 1005.42 67.1878 1011.36 63.6255C1017.4 59.9553 1024.31 58.1202 1032.08 58.1202C1039.64 58.1202 1046.17 60.0093 1051.67 63.7874C1057.18 67.4576 1061.44 72.6391 1064.47 79.3318C1067.08 85.1092 1068.56 91.7714 1068.92 99.3185C1069.01 101.334 1067.36 102.972 1065.35 102.972H1002.13L1005.37 100.219C1005.37 106.696 1006.5 112.255 1008.77 116.897C1011.14 121.539 1014.43 125.101 1018.64 127.584C1022.85 129.959 1027.66 131.146 1033.05 131.146C1038.77 131.146 1043.58 129.797 1047.46 127.098C1051.46 124.399 1054.54 120.837 1056.69 116.411H1069C1069 122.079 1063.06 129.959 1059.61 133.089C1056.26 136.22 1052.27 138.648 1047.63 140.376C1043.09 142.103 1038.02 142.966 1032.41 142.966ZM1006.18 94.7141L1002.77 92.1234H1058.64L1055.24 94.8761C1055.24 89.6946 1054.21 85.2148 1052.16 81.4367C1050.11 77.6586 1047.36 74.744 1043.9 72.693C1040.45 70.642 1036.45 69.6166 1031.92 69.6166C1027.49 69.6166 1023.28 70.642 1019.29 72.693C1015.4 74.744 1012.22 77.6586 1009.74 81.4367C1007.36 85.1069 1006.18 89.5327 1006.18 94.7141Z" fill="#7B60D6"/>
<path d="M721.807 52.1342C736.714 52.512 749.821 60.1283 757.749 71.5981L745.28 77.3637C739.483 70.1708 730.602 65.5671 720.644 65.5669C703.176 65.5669 689.016 79.7278 689.015 97.1958C689.016 114.664 703.176 128.824 720.644 128.824C731.856 128.823 741.703 122.989 747.32 114.192L759.747 119.626C751.968 133.157 737.372 142.271 720.644 142.271L719.48 142.256C695.51 141.649 676.19 122.329 675.583 98.3589L675.568 97.1958C675.568 72.3012 695.75 52.1196 720.644 52.1196L721.807 52.1342Z" fill="#7B60D6"/>
<defs>
<linearGradient id="paint0_linear_8_211" x1="44.5" y1="0" x2="44.5" y2="157.935" gradientUnits="userSpaceOnUse">
<stop stop-color="#4B92EF"/>
<stop offset="1" stop-color="#9B3CC3"/>
</linearGradient>
</defs>
</svg>
